<svg width="428" height="212" viewBox="0 0 428 212" fill="none" xmlns="http://www.w3.org/2000/svg">
<path d="M410.19 134.56C396.85 141.81 385.1 135.87 373.16 129.06C364.99 124.4 354.83 130.29 354.83 139.7V211.61H0V0H218.65C225.7 2.47 229.29 11.1 224.98 18.02C214.4 35 212 55.99 231.62 67.52C247.53 76.87 269.36 70.85 278.17 54.62C285.41 41.27 279.46 29.52 272.65 17.59C268.72 10.72 272.28 2.46 279.1 0H354.83V71C354.83 80.61 365.41 86.48 373.57 81.39C390.54 70.81 411.52 68.39 423.06 88C432.42 103.91 426.41 125.74 410.19 134.56Z" fill="#F195BA"/>
</svg>
