<svg width="356" height="286" viewBox="0 0 356 286" fill="none" xmlns="http://www.w3.org/2000/svg">
<path d="M336.81 83.57C344.08 88.1 353.24 83.93 355.16 76.17V0.0100098H0V214.06H218.65C225.7 216.53 229.29 225.16 224.98 232.08C214.4 249.06 212 270.05 231.62 281.58C247.53 290.93 269.36 284.91 278.17 268.68C285.41 255.33 279.46 243.58 272.65 231.65C268.72 224.78 272.28 216.52 279.1 214.06H355.17V182.8H355.15V138.68C353.4 130.22 345.22 126.91 337.24 131.24C325.16 137.79 314.46 143.63 301.12 136.39C284.89 127.57 277.97 106.12 287.32 90.21C298.85 70.59 319.84 73 336.81 83.57Z" fill="#EB5B2D"/>
</svg>
