<svg width="564" height="108" viewBox="0 0 564 108" fill="none" xmlns="http://www.w3.org/2000/svg">
<path d="M17.3488 46.2467C17.7464 42.2791 18.8127 38.9666 20.5475 36.3094C22.2824 33.6522 24.433 31.541 26.9991 29.9757C29.5653 28.3741 32.4206 27.2457 35.5651 26.5905C38.7096 25.9353 41.8902 25.6077 45.107 25.6077C47.7455 25.6077 50.3297 25.7169 52.8598 25.9353C55.3898 26.1537 57.721 26.4085 59.8535 26.6997C61.986 26.9909 63.8293 27.2821 65.3834 27.5733C66.9376 27.8645 68.0761 28.0829 68.799 28.2285C69.2327 28.3377 69.4496 28.5379 69.4496 28.8291C69.4496 28.9019 69.4134 29.1203 69.3412 29.4843L68.5279 33.4156C68.4556 33.6704 68.3472 33.8342 68.2026 33.907C68.0942 33.9434 67.9858 33.9616 67.8773 33.9616C66.287 33.9616 64.9136 34.2346 63.757 34.7806C62.6004 35.3266 61.6426 36.091 60.8836 37.0738C60.1246 38.0566 59.5463 39.2214 59.1487 40.5683C58.7511 41.9151 58.4801 43.3711 58.3355 44.9363L55.0826 84.6309C54.7934 87.8342 53.9802 90.8554 52.6429 93.6946C51.3056 96.5339 49.4442 99.0091 47.0587 101.12C44.6733 103.232 41.7457 104.906 38.2759 106.144C34.8061 107.381 30.8303 108 26.3486 108C23.3486 108 20.4572 107.854 17.6741 107.563C14.8911 107.272 12.361 106.926 10.084 106.526C7.80698 106.125 5.83716 105.743 4.17457 105.379C2.54811 104.979 1.37345 104.688 0.650582 104.506C0.216861 104.396 0 104.196 0 103.905C0 103.869 0.0361434 103.668 0.10843 103.304L1.03009 99.1547C1.10237 98.8999 1.19273 98.7543 1.30116 98.7179C1.44574 98.6451 1.57224 98.6087 1.68067 98.6087C3.27098 98.6087 4.73479 98.3721 6.07209 97.8989C7.44554 97.4257 8.63828 96.6431 9.65029 95.5511C10.6623 94.4591 11.4936 93.0394 12.1442 91.2922C12.8309 89.545 13.3008 87.3974 13.5538 84.8493L17.3488 46.2467Z" fill="#FDFCF3" fill-opacity="0.25"/>
<path d="M134.996 77.6421C134.996 81.7917 134.598 85.4317 133.803 88.5622C133.008 91.6562 131.905 94.3316 130.496 96.5885C129.086 98.8453 127.424 100.702 125.508 102.158C123.592 103.614 121.496 104.779 119.219 105.652C116.978 106.526 114.593 107.126 112.063 107.454C109.569 107.818 107.039 108 104.473 108C102.015 108 99.5571 107.836 97.0993 107.509C94.6777 107.217 92.3645 106.671 90.1598 105.871C87.9912 105.07 85.9671 103.96 84.0877 102.54C82.2082 101.12 80.5818 99.2821 79.2083 97.0253C77.8349 94.7685 76.7506 92.0566 75.9554 88.8898C75.1964 85.723 74.8169 81.9737 74.8169 77.6421V35.1082C74.8169 33.8342 74.9253 32.724 75.1422 31.7776C75.359 30.8311 75.7747 30.0485 76.3891 29.4297C77.0036 28.7745 77.8529 28.2831 78.9372 27.9555C80.0215 27.6279 81.4311 27.4641 83.166 27.4641H107.346C109.442 27.4641 111.033 27.7735 112.117 28.3923C113.237 29.0111 114.014 29.7937 114.448 30.7401C114.918 31.6502 115.171 32.633 115.207 33.6886C115.243 34.7078 115.261 35.6542 115.261 36.5278V92.6026C115.261 93.1486 115.406 93.549 115.695 93.8038C116.02 94.0222 116.328 94.1314 116.617 94.1314C117.918 94.1314 119.056 93.7856 120.032 93.094C121.008 92.366 121.821 91.3832 122.472 90.1456C123.123 88.908 123.61 87.452 123.936 85.7776C124.297 84.1031 124.478 82.3013 124.478 80.3721V30.0303C124.478 29.4115 124.604 28.8291 124.857 28.2831C125.147 27.7371 125.761 27.4641 126.701 27.4641H132.339C132.664 27.4641 132.99 27.4823 133.315 27.5187C133.64 27.5551 133.929 27.6643 134.182 27.8463C134.435 27.9919 134.634 28.2467 134.779 28.6107C134.923 28.9383 134.996 29.4115 134.996 30.0303V77.6421Z" fill="#FDFCF3" fill-opacity="0.25"/>
<path d="M144.971 35.1082C144.971 33.8342 145.08 32.724 145.297 31.7776C145.513 30.8311 145.929 30.0485 146.544 29.4297C147.158 28.7745 148.007 28.2831 149.092 27.9555C150.176 27.6279 151.586 27.4641 153.32 27.4641H177.5C181.44 27.4641 185.235 27.9373 188.886 28.8837C192.536 29.8301 195.771 31.3589 198.59 33.4702C201.409 35.5814 203.668 38.3296 205.367 41.7149C207.066 45.0637 207.915 49.1587 207.915 54C207.915 60.7705 206.831 66.2669 204.662 70.4894C202.53 74.7118 199.548 77.6967 195.717 79.4439C198.391 80.3175 200.397 81.7007 201.734 83.5935C203.072 85.45 203.74 87.6886 203.74 90.3094C203.74 93.6946 202.963 96.4065 201.409 98.4449C199.891 100.483 197.903 102.067 195.446 103.195C192.988 104.287 190.223 105.015 187.151 105.379C184.115 105.707 181.079 105.871 178.042 105.871H153.32C151.586 105.871 150.176 105.707 149.092 105.379C148.007 105.052 147.158 104.578 146.544 103.96C145.929 103.341 145.513 102.558 145.297 101.612C145.08 100.665 144.971 99.5551 144.971 98.2811V35.1082ZM200.271 54.8736C200.271 52.2528 199.982 49.8504 199.403 47.6663C198.825 45.4459 197.939 43.4985 196.747 41.8241C195.554 40.1496 194.018 38.7664 192.138 37.6744C190.259 36.5824 188.018 35.8362 185.416 35.4358V76.0586C188.018 75.6946 190.259 74.8938 192.138 73.6562C194.018 72.3822 195.554 70.7988 196.747 68.906C197.939 67.0131 198.825 64.8655 199.403 62.4631C199.982 60.0607 200.271 57.5308 200.271 54.8736ZM185.416 98.2811C189.175 98.1355 191.885 97.3711 193.548 95.9879C195.211 94.6047 196.042 92.9484 196.042 91.0192C196.042 90.1092 195.843 89.1992 195.446 88.2892C195.084 87.3792 194.47 86.5784 193.602 85.8868C192.771 85.1587 191.669 84.5581 190.295 84.0849C188.958 83.6117 187.331 83.3205 185.416 83.2113V98.2811Z" fill="#FDFCF3" fill-opacity="0.25"/>
<path d="M216.318 35.1082C216.318 33.8342 216.427 32.724 216.644 31.7776C216.861 30.8311 217.276 30.0485 217.891 29.4297C218.505 28.7745 219.354 28.2831 220.439 27.9555C221.523 27.6279 222.933 27.4641 224.667 27.4641H248.847C250.944 27.4641 252.534 27.7735 253.618 28.3923C254.739 29.0111 255.516 29.7937 255.95 30.7401C256.419 31.6502 256.673 32.633 256.709 33.6886C256.745 34.7078 256.763 35.6542 256.763 36.5278V98.3903C259.257 98.0263 261.57 97.6987 263.702 97.4075C264.606 97.2983 265.51 97.1891 266.413 97.0799C267.353 96.9343 268.202 96.8069 268.961 96.6977C269.756 96.5885 270.461 96.5157 271.076 96.4793C271.69 96.4065 272.142 96.3701 272.431 96.3701C273.045 96.3701 273.533 96.4975 273.895 96.7523C274.292 96.9707 274.491 97.4439 274.491 98.1719V103.195C274.491 103.85 274.202 104.469 273.624 105.052C273.082 105.598 272.196 105.871 270.967 105.871H224.559C222.86 105.871 221.469 105.707 220.385 105.379C219.336 105.052 218.505 104.578 217.891 103.96C217.276 103.341 216.861 102.558 216.644 101.612C216.427 100.665 216.318 99.5551 216.318 98.2811V35.1082Z" fill="#FDFCF3" fill-opacity="0.25"/>
<path d="M280.618 35.1082C280.618 33.8342 280.726 32.724 280.943 31.7776C281.16 30.8311 281.575 30.0485 282.19 29.4297C282.804 28.7745 283.654 28.2831 284.738 27.9555C285.822 27.6279 287.232 27.4641 288.967 27.4641H313.147C315.243 27.4641 316.833 27.7735 317.918 28.3923C319.038 29.0111 319.815 29.7937 320.249 30.7401C320.719 31.6502 320.972 32.633 321.008 33.6886C321.044 34.7078 321.062 35.6542 321.062 36.5278V97.0253C321.062 97.8625 320.99 98.7907 320.845 99.8099C320.701 100.829 320.339 101.794 319.761 102.704C319.183 103.577 318.297 104.324 317.104 104.942C315.912 105.561 314.267 105.871 312.171 105.871H288.967C287.232 105.871 285.822 105.707 284.738 105.379C283.654 105.052 282.804 104.578 282.19 103.96C281.575 103.341 281.16 102.558 280.943 101.612C280.726 100.665 280.618 99.5551 280.618 98.2811V35.1082Z" fill="#FDFCF3" fill-opacity="0.25"/>
<path d="M377.771 71.3084L365.03 94.9505C364.488 95.9697 363.838 96.8251 363.079 97.5167C362.32 98.1719 361.272 98.4995 359.934 98.4995C358.705 98.4995 357.675 98.1537 356.844 97.4621C356.049 96.7705 355.38 95.9515 354.838 95.0051L341.393 71.7452C341.61 76.6593 341.808 81.1911 341.989 85.3408C342.061 87.1244 342.134 88.908 342.206 90.6916C342.278 92.4752 342.35 94.1314 342.423 95.6603C342.495 97.1891 342.549 98.5541 342.585 99.7553C342.658 100.92 342.712 101.776 342.748 102.322C342.784 102.868 342.766 103.359 342.694 103.796C342.658 104.233 342.531 104.615 342.314 104.942C342.097 105.234 341.79 105.47 341.393 105.652C340.995 105.798 340.453 105.871 339.766 105.871H333.803C333.152 105.871 332.538 105.67 331.959 105.27C331.417 104.833 331.146 103.996 331.146 102.758V33.3064C331.146 32.6148 331.236 31.9232 331.417 31.2315C331.634 30.5399 331.977 29.9211 332.447 29.3751C332.953 28.7927 333.604 28.3377 334.399 28.0101C335.194 27.6461 336.17 27.4641 337.327 27.4641H354.784C356.193 27.4641 357.404 27.7189 358.416 28.2285C359.428 28.7017 360.296 29.5025 361.019 30.6309L375.602 53.9454L385.361 35.1082C385.939 33.9798 386.5 32.9606 387.042 32.0506C387.584 31.1041 388.216 30.3033 388.939 29.6481C389.698 28.9565 390.62 28.4287 391.704 28.0647C392.825 27.6643 394.252 27.4641 395.987 27.4641H410.409C411.782 27.4641 412.957 27.6461 413.933 28.0101C414.945 28.3741 415.758 28.8655 416.372 29.4843C417.023 30.1031 417.493 30.8311 417.782 31.6684C418.071 32.5056 418.216 33.4156 418.216 34.3984V98.2811C418.216 99.4095 418.125 100.447 417.944 101.393C417.764 102.303 417.384 103.104 416.806 103.796C416.264 104.451 415.469 104.961 414.42 105.325C413.408 105.689 412.071 105.871 410.409 105.871H385.361C383.879 105.871 382.65 105.707 381.675 105.379C380.699 105.052 379.922 104.578 379.343 103.96C378.765 103.341 378.349 102.558 378.096 101.612C377.879 100.665 377.771 99.5551 377.771 98.2811V71.3084Z" fill="#FDFCF3" fill-opacity="0.25"/>
<path d="M468.636 54.8736V99.1547C472.142 98.6451 475.358 98.1901 478.286 97.7897C479.515 97.6077 480.744 97.4439 481.973 97.2983C483.238 97.1163 484.394 96.9525 485.442 96.8069C486.49 96.6613 487.394 96.5521 488.153 96.4793C488.912 96.4065 489.436 96.3701 489.725 96.3701C490.34 96.3701 490.864 96.4975 491.298 96.7523C491.731 96.9707 491.948 97.4439 491.948 98.1719V103.195C491.948 103.85 491.785 104.469 491.46 105.052C491.135 105.598 490.358 105.871 489.129 105.871H436.432C434.733 105.871 433.342 105.707 432.257 105.379C431.209 105.052 430.378 104.578 429.763 103.96C429.149 103.341 428.733 102.558 428.516 101.612C428.3 100.665 428.191 99.5551 428.191 98.2811V36.9646C428.191 34.8898 428.426 33.2336 428.896 31.996C429.366 30.7219 430.034 29.7573 430.902 29.1021C431.769 28.4105 432.799 27.9737 433.992 27.7917C435.221 27.5733 436.576 27.4641 438.058 27.4641H487.069C488.298 27.4641 489.075 27.7553 489.4 28.3377C489.761 28.8837 489.942 29.5025 489.942 30.1941V34.0708C489.942 34.7988 489.743 35.2902 489.346 35.545C488.984 35.7634 488.496 35.8726 487.882 35.8726C487.521 35.8726 486.96 35.8362 486.201 35.7634C485.478 35.6906 484.629 35.5996 483.653 35.4904C482.677 35.3448 481.629 35.1992 480.509 35.0536C479.388 34.908 478.268 34.7442 477.147 34.5622C474.545 34.1618 471.708 33.7068 468.636 33.1972V47.0657H488.804C489.563 47.0657 489.942 47.4479 489.942 48.2123V53.6724C489.942 54.4732 489.563 54.8736 488.804 54.8736H468.636ZM454.16 22.1132C454.016 22.186 453.889 22.2588 453.781 22.3316C453.672 22.4044 453.564 22.4408 453.455 22.4408C453.058 22.4408 452.751 22.2588 452.534 21.8948L448.901 16.544C448.684 16.2892 448.576 16.0344 448.576 15.7796C448.576 15.5248 448.739 15.2518 449.064 14.9606L468.256 0.327604C468.509 0.109201 468.762 0 469.015 0C469.268 0 469.539 0.163802 469.828 0.491405L474.816 7.58948C475.069 7.88069 475.196 8.15369 475.196 8.40849C475.196 8.7361 475.033 9.0091 474.708 9.2275L454.16 22.1132Z" fill="#FDFCF3" fill-opacity="0.25"/>
<path d="M511.899 46.2467C512.297 42.2791 513.363 38.9666 515.098 36.3094C516.833 33.6522 518.983 31.541 521.55 29.9757C524.116 28.3741 526.971 27.2457 530.116 26.5905C533.26 25.9353 536.441 25.6077 539.657 25.6077C542.296 25.6077 544.88 25.7169 547.41 25.9353C549.94 26.1537 552.271 26.4085 554.404 26.6997C556.536 26.9909 558.38 27.2821 559.934 27.5733C561.488 27.8645 562.627 28.0829 563.349 28.2285C563.783 28.3377 564 28.5379 564 28.8291C564 28.9019 563.964 29.1203 563.892 29.4843L563.078 33.4156C563.006 33.6704 562.898 33.8342 562.753 33.907C562.645 33.9434 562.536 33.9616 562.428 33.9616C560.837 33.9616 559.464 34.2346 558.307 34.7806C557.151 35.3266 556.193 36.091 555.434 37.0738C554.675 38.0566 554.097 39.2214 553.699 40.5683C553.302 41.9151 553.03 43.3711 552.886 44.9363L549.633 84.6309C549.344 87.8342 548.531 90.8554 547.193 93.6946C545.856 96.5339 543.995 99.0091 541.609 101.12C539.224 103.232 536.296 104.906 532.826 106.144C529.357 107.381 525.381 108 520.899 108C517.899 108 515.008 107.854 512.225 107.563C509.442 107.272 506.911 106.926 504.634 106.526C502.357 106.125 500.388 105.743 498.725 105.379C497.099 104.979 495.924 104.688 495.201 104.506C494.767 104.396 494.55 104.196 494.55 103.905C494.55 103.869 494.587 103.668 494.659 103.304L495.581 99.1547C495.653 98.8999 495.743 98.7543 495.852 98.7179C495.996 98.6451 496.123 98.6087 496.231 98.6087C497.821 98.6087 499.285 98.3721 500.623 97.8989C501.996 97.4257 503.189 96.6431 504.201 95.5511C505.213 94.4591 506.044 93.0394 506.695 91.2922C507.381 89.545 507.851 87.3974 508.104 84.8493L511.899 46.2467Z" fill="#FDFCF3" fill-opacity="0.25"/>
</svg>
