<svg width="16" height="16" viewBox="0 0 16 16" fill="none" xmlns="http://www.w3.org/2000/svg">
<path d="M7.23973 3.14165C7.47921 2.4046 8.52194 2.40461 8.76142 3.14165L9.61707 5.77509C9.72417 6.10471 10.0313 6.32788 10.3779 6.32788H13.1469C13.9219 6.32788 14.2441 7.31957 13.6171 7.77509L11.377 9.40265C11.0966 9.60636 10.9793 9.96745 11.0864 10.2971L11.942 12.9305C12.1815 13.6676 11.3379 14.2805 10.7109 13.8249L8.4708 12.1974C8.19041 11.9937 7.81073 11.9937 7.53034 12.1974L5.29021 13.8249C4.66324 14.2805 3.81965 13.6676 4.05914 12.9305L4.91479 10.2971C5.02189 9.96745 4.90456 9.60636 4.62417 9.40265L2.38404 7.77509C1.75707 7.31957 2.07929 6.32788 2.85427 6.32788H5.62323C5.96981 6.32788 6.27697 6.10471 6.38407 5.77509L7.23973 3.14165Z" fill="white"/>
</svg>
