<svg width="26" height="26" viewBox="0 0 26 26" fill="none" xmlns="http://www.w3.org/2000/svg">
<path d="M25.4982 7.42386C25.4841 6.36776 25.2861 5.32217 24.913 4.33384C24.5894 3.50019 24.0952 2.74309 23.462 2.11091C22.8287 1.47872 22.0704 0.985364 21.2353 0.662347C20.2581 0.296114 19.2257 0.0980849 18.1821 0.0766929C16.8384 0.0167331 16.4124 0 13.0016 0C9.59075 0 9.15357 9.35027e-08 7.81969 0.0766929C6.77655 0.0982421 5.74462 0.296268 4.76782 0.662347C3.93265 0.985139 3.17417 1.47842 2.5409 2.11063C1.90764 2.74284 1.41354 3.50006 1.09021 4.33384C0.72263 5.30872 0.524701 6.33916 0.504975 7.38063C0.444915 8.72345 0.426758 9.14875 0.426758 12.5539C0.426758 15.9591 0.426758 16.3941 0.504975 17.7272C0.525926 18.7702 0.722866 19.7993 1.09021 20.7768C1.41408 21.6103 1.90855 22.3672 2.54203 22.9991C3.1755 23.6311 3.93405 24.1242 4.76921 24.4469C5.74334 24.8278 6.77545 25.04 7.82108 25.0744C9.16614 25.1343 9.59214 25.1524 13.003 25.1524C16.4138 25.1524 16.851 25.1524 18.1849 25.0744C19.2284 25.0538 20.2609 24.8563 21.2381 24.4901C22.073 24.1667 22.8311 23.6732 23.4643 23.0411C24.0975 22.4089 24.5918 21.652 24.9157 20.8186C25.2831 19.8425 25.48 18.8134 25.501 17.769C25.561 16.4276 25.5792 16.0023 25.5792 12.5957C25.5764 9.19058 25.5764 8.75831 25.4982 7.42386ZM12.9932 18.9933C9.42593 18.9933 6.53608 16.1083 6.53608 12.5469C6.53608 8.9856 9.42593 6.10056 12.9932 6.10056C14.7057 6.10056 16.3481 6.77973 17.5591 7.98866C18.77 9.19759 19.4503 10.8373 19.4503 12.5469C19.4503 14.2566 18.77 15.8963 17.5591 17.1052C16.3481 18.3141 14.7057 18.9933 12.9932 18.9933ZM19.7073 7.36529C19.5095 7.36548 19.3137 7.32672 19.1309 7.25125C18.9481 7.17577 18.7821 7.06505 18.6422 6.92543C18.5024 6.78581 18.3915 6.62003 18.3159 6.43757C18.2403 6.25512 18.2014 6.05957 18.2016 5.86212C18.2016 5.66481 18.2406 5.46943 18.3162 5.28714C18.3918 5.10485 18.5027 4.93922 18.6424 4.7997C18.7822 4.66018 18.9481 4.54951 19.1307 4.474C19.3133 4.3985 19.509 4.35964 19.7066 4.35964C19.9043 4.35964 20.1 4.3985 20.2825 4.474C20.4651 4.54951 20.631 4.66018 20.7708 4.7997C20.9105 4.93922 21.0214 5.10485 21.097 5.28714C21.1727 5.46943 21.2116 5.66481 21.2116 5.86212C21.2116 6.69319 20.5384 7.36529 19.7073 7.36529Z" fill="#333333"/>
<path d="M13.0027 16.9195C15.4021 16.9195 17.3472 14.9744 17.3472 12.575C17.3472 10.1756 15.4021 8.23047 13.0027 8.23047C10.6033 8.23047 8.6582 10.1756 8.6582 12.575C8.6582 14.9744 10.6033 16.9195 13.0027 16.9195Z" fill="#333333"/>
</svg>
