<svg width="25" height="25" viewBox="0 0 25 25" fill="none" xmlns="http://www.w3.org/2000/svg">
<path d="M12.9267 0.503906C6.25877 0.503906 0.853516 5.90916 0.853516 12.5771C0.853516 19.245 6.25877 24.6502 12.9267 24.6502C19.5946 24.6502 24.9999 19.245 24.9999 12.5771C24.9999 5.90916 19.5946 0.503906 12.9267 0.503906ZM9.97127 17.5812H7.52646V9.71347H9.97127V17.5812ZM8.73377 8.74762C7.96159 8.74762 7.46232 8.20055 7.46232 7.52395C7.46232 6.83352 7.97669 6.3028 8.76521 6.3028C9.55374 6.3028 10.0367 6.83352 10.0518 7.52395C10.0518 8.20055 9.55374 8.74762 8.73377 8.74762ZM18.9004 17.5812H16.4556V13.221C16.4556 12.2061 16.1009 11.5169 15.2168 11.5169C14.5415 11.5169 14.1403 11.9835 13.963 12.4324C13.8976 12.5922 13.8812 12.8185 13.8812 13.0437V17.5799H11.4351V12.2224C11.4351 11.2402 11.4037 10.419 11.371 9.71221H13.4951L13.6071 10.8051H13.6561C13.9781 10.292 14.7666 9.53489 16.0858 9.53489C17.6943 9.53489 18.9004 10.6127 18.9004 12.9292V17.5812Z" fill="#333333"/>
</svg>
