<svg width="53" height="53" viewBox="0 0 53 53" fill="none" xmlns="http://www.w3.org/2000/svg">
<path d="M26.4 0.0996094C11.8195 0.0996094 0 11.9191 0 26.4996C0 41.0801 11.8195 52.8996 26.4 52.8996C40.9805 52.8996 52.8 41.0801 52.8 26.4996C52.8 11.9191 40.9805 0.0996094 26.4 0.0996094ZM19.9375 37.4419H14.5915V20.2379H19.9375V37.4419ZM17.2315 18.1259C15.543 18.1259 14.4513 16.9296 14.4513 15.4501C14.4513 13.9404 15.576 12.7799 17.3002 12.7799C19.0245 12.7799 20.0805 13.9404 20.1135 15.4501C20.1135 16.9296 19.0245 18.1259 17.2315 18.1259ZM39.4625 37.4419H34.1165V27.9076C34.1165 25.6884 33.341 24.1814 31.4078 24.1814C29.931 24.1814 29.0538 25.2016 28.666 26.1834C28.523 26.5326 28.4873 27.0276 28.4873 27.5199V37.4391H23.1385V25.7241C23.1385 23.5764 23.0697 21.7806 22.9982 20.2351H27.643L27.8878 22.6249H27.995C28.699 21.5029 30.4233 19.8474 33.308 19.8474C36.8253 19.8474 39.4625 22.2041 39.4625 27.2696V37.4419V37.4419Z" fill="#9F9FED"/>
</svg>
