<svg width="53" height="53" viewBox="0 0 53 53" fill="none" xmlns="http://www.w3.org/2000/svg">
<path d="M30.9249 26.039L24.7251 23.1461C24.184 22.8949 23.7396 23.1765 23.7396 23.7755V29.2245C23.7396 29.8235 24.184 30.1051 24.7251 29.8539L30.9222 26.961C31.466 26.707 31.466 26.293 30.9249 26.039ZM26.5 0C11.8643 0 0 11.8643 0 26.5C0 41.1357 11.8643 53 26.5 53C41.1357 53 53 41.1357 53 26.5C53 11.8643 41.1357 0 26.5 0ZM26.5 37.2656C12.9353 37.2656 12.6979 36.0428 12.6979 26.5C12.6979 16.9572 12.9353 15.7344 26.5 15.7344C40.0647 15.7344 40.3021 16.9572 40.3021 26.5C40.3021 36.0428 40.0647 37.2656 26.5 37.2656Z" fill="#9F9FED"/>
</svg>
